<svg width="700" height="700" version="1.1" xmlns="http://www.w3.org/2000/svg" viewBox="130 170 280 150" desc="Created with imagetracer.js version 1.2.6" ><path fill="rgb(234,234,234)" stroke="rgb(234,234,234)" stroke-width="1" opacity="0.8705882352941177" d="M 287 182 L 299 182 L 299 188 L 294 188.5 L 294 220 Q 301.5 217.5 299 225 L 287.5 225 L 287 224.5 L 287 182 Z " /><path fill="rgb(234,234,234)" stroke="rgb(234,234,234)" stroke-width="1" opacity="0.8705882352941177" d="M 373.5 182 L 385.5 182 L 386 182.5 L 386 225 L 374 225 L 374 220 L 378 219.5 L 378 188 Q 372 190.3 374 183.5 L 373.5 182 Z " /><path fill="rgb(234,234,234)" stroke="rgb(234,234,234)" stroke-width="1" opacity="0.8705882352941177" d="M 304.5 184 L 322.5 184 L 329 188.5 L 330 197.5 L 326.5 202 L 324 202.5 L 329 209.5 L 332 221 Q 325.9 222.8 324 219.5 L 321 212.5 Q 323.5 211 320 209.5 L 318.5 206 L 312 206 L 312 221 L 305 221 L 305 185.5 L 304.5 184 Z M 312 191 L 312 199 L 321 199 L 323 197 L 322 193 L 322 191 L 312 191 Z " /><path fill="rgb(234,234,234)" stroke="rgb(234,234,234)" stroke-width="1" opacity="0.8705882352941177" d="M 337 184 L 346 184.5 L 345 185.5 L 345 198 L 348.5 197 L 353.5 198 L 358.5 197 L 360.5 198 L 360 196.5 Q 362.5 193 361 185.5 L 360.5 184 L 367.5 184 L 368 184.5 L 368 221 L 361 221 L 361 207.5 L 360 205.5 L 360.5 204 L 345 204 L 345 221 L 338.5 221 L 337 219.5 L 337 184 Z " /><path fill="rgb(234,234,234)" stroke="rgb(234,234,234)" stroke-width="1" opacity="0.8705882352941177" d="M 152 213 L 174.5 213 L 175 214.5 L 174 218.5 L 175 221.5 L 173.5 223 Q 166.7 221.3 165 224.5 L 165 287.5 L 165.5 288 L 174 288 L 174 299 L 151.5 299 L 151 297.5 L 152 296.5 L 152 213 Z " /><path fill="rgb(234,234,234)" stroke="rgb(234,234,234)" stroke-width="1" opacity="0.8705882352941177" d="M 186.5 216 L 187.5 217 L 222.5 217 Q 223.9 219.6 228.5 219 L 235 224.5 L 238 232.5 L 238 240.5 Q 236.2 247.7 230.5 251 L 225 253 L 225 255 L 228 255 L 228 257 Q 230.7 255.9 230 258.5 L 234 265.5 L 234 268.5 L 241 288 L 226.5 288 L 225 286.5 L 224 284.5 L 224 282.5 L 220 272.5 L 219 265.5 L 214.5 260 Q 209.8 257.8 201.5 259 L 201 261.5 L 201 288 L 187.5 288 L 186 288.5 L 186.5 216 Z M 201 229 L 201 247 L 217 247 L 219 247 L 223 243 L 223 241 L 222 233 L 218 229 L 201 229 Z " /><path fill="rgb(234,234,234)" stroke="rgb(234,234,234)" stroke-width="1" opacity="0.8705882352941177" d="M 252 217 L 268 217 L 268 244 L 299 244 L 298 238.5 L 298.5 236 L 312.5 236 L 313.5 235 L 314 288.5 L 312.5 288 L 299 288 L 299 260.5 L 299 258.5 L 298.5 256 L 268 256 L 268 288 L 254.5 288 L 252 289 Q 254.2 285.4 253 276.5 L 252 275.5 L 252 217 Z " /><path fill="rgb(234,234,234)" stroke="rgb(234,234,234)" stroke-width="1" opacity="0.8705882352941177" d="M 335 236 L 347.5 236 L 348 236.5 L 348 299 L 325 298.5 L 326 295.5 L 326 288 L 334.5 288 L 335 287.5 L 335 236 Z " /></svg>